<?xml version="1.0" standalone="no"?>
<!DOCTYPE svg PUBLIC "-//W3C//DTD SVG 20010904//EN"
 "http://www.w3.org/TR/2001/REC-SVG-20010904/DTD/svg10.dtd">
<svg version="1.0" xmlns="http://www.w3.org/2000/svg"
 width="260.000000pt" height="260.000000pt" viewBox="0 0 260.000000 260.000000"
 preserveAspectRatio="xMidYMid meet">
<metadata>
Created by potrace 1.11, written by Peter Selinger 2001-2013
</metadata>
<g transform="translate(0.000000,260.000000) scale(0.100000,-0.100000)"
fill="#000000" stroke="none">
<path d="M1177 2574 c-177 -43 -296 -160 -342 -339 -36 -142 -11 -237 130
-480 89 -155 108 -214 109 -350 1 -95 -2 -115 -21 -150 -19 -35 -77 -104 -360
-422 -59 -67 -63 -89 -22 -112 44 -24 77 -7 171 91 83 87 88 90 120 84 50 -10
80 -46 85 -103 6 -61 -36 -232 -112 -459 -30 -89 -55 -169 -55 -178 0 -25 45
-42 75 -28 32 15 83 118 163 332 67 177 85 195 90 90 2 -36 -4 -165 -13 -287
-19 -243 -18 -253 35 -253 15 0 34 8 43 18 15 17 38 167 70 471 12 116 27 148
46 99 5 -13 22 -127 37 -252 26 -213 29 -229 51 -243 30 -20 70 -5 78 29 3 13
-3 133 -14 268 -27 344 -25 345 148 38 40 -70 77 -130 82 -134 18 -11 59 6 70
29 10 23 2 44 -129 319 -36 75 -41 95 -51 207 -6 68 -23 173 -36 234 -30 134
-33 207 -7 230 22 20 74 22 136 5 99 -26 162 53 124 159 -11 29 -10 35 12 58
18 19 20 27 11 38 -9 12 -7 16 10 20 18 5 20 11 15 34 -14 57 -12 66 19 76 73
24 72 47 -5 167 -62 97 -68 117 -48 149 9 15 9 40 -1 113 -29 226 -83 314
-233 383 -128 59 -349 81 -481 49z m124 -230 c17 -16 37 -42 44 -57 l12 -29
26 45 c79 135 272 83 285 -77 7 -87 -26 -146 -154 -274 -59 -59 -117 -121
-131 -139 l-25 -32 -48 57 c-26 31 -85 93 -130 137 -97 94 -130 152 -130 234
0 67 34 130 82 155 51 26 130 17 169 -20z"/>
</g>
</svg>
